PathFileType	3	(X/Y/Z)	D:\minhoCalibration\240510\subject1_KPNP\preferred\preferred08.trc
DataRate	CameraRate	NumFrames	NumMarkers	Units	OrigDataRate	OrigDataStartFrame	OrigNumFrames
200.0	200.0	30	10	mm	200.0	366	196	
Frame#	Time	Left_Ankle_Outer1			Left_Ankle_Inner1			Left_Knee_Outer1			Left_Knee_Inner1			Left_Wrist1			Right_Wrist1			Right_Knee_Inner1			Right_Knee_Outer1			Right_Ankle_Inner1			Right_Ankle_Outer1			
		X1	Y1	Z1	X2	Y2	Z2	X3	Y3	Z3	X4	Y4	Z4	X5	Y5	Z5	X6	Y6	Z6	X7	Y7	Z7	X8	Y8	Z8	X9	Y9	Z9	X10	Y10	Z10	
366	1.82	-536.73279	99.934433	-561.41522	-588.00989	107.58862	-534.54492	-431.87827	513.91302	-377.98337	-540.20789	493.0762	-379.64996	-392.18527	972.12256	-496.24628	-738.13232	1002.3751	-579.11841	-680.86627	549.47675	-402.0708	-788.61578	567.48322	-439.43341	-755.55963	120.12845	-415.0542	-859.71661	113.74648	-389.66458
367	1.825	-536.92554	99.679985	-561.76544	-588.17847	107.26825	-535.00433	-434.14774	514.94501	-379.99637	-541.70294	493.21591	-384.07767	-394.56439	973.56494	-494.59055	-738.17035	1003.295	-586.50519	-684.44458	552.6745	-402.85513	-789.74567	569.92529	-443.63406	-755.27802	121.32314	-423.06238	-860.39496	114.80837	-401.10934
368	1.83	-537.12799	99.424118	-562.19678	-588.38342	106.90344	-535.39514	-436.50589	515.875	-382.1608	-543.94379	493.95926	-387.26523	-397.25751	975.23041	-492.93726	-738.41693	1004.1714	-594.94128	-687.9433	555.76575	-404.08975	-791.21594	572.34686	-448.29886	-754.7373	122.89009	-431.51184	-860.86072	115.54909	-413.14355
369	1.835	-537.41858	99.033745	-562.64624	-588.72583	106.4137	-535.96875	-438.85593	516.82452	-384.42676	-546.25031	494.63947	-390.62115	-399.69971	976.55377	-491.49832	-738.06946	1004.98	-601.27588	-691.4436	558.79553	-405.69089	-793.04437	574.56744	-453.32574	-754.91833	123.94185	-439.98734	-861.19922	116.15824	-425.85699
370	1.84	-537.74402	98.64341	-563.0506	-588.94922	106.01295	-536.42438	-441.2868	517.70166	-386.8154	-548.66626	495.38028	-394.18747	-401.9386	977.72388	-490.04144	-741.75006	1010.2294	-610.31836	-694.80243	561.53845	-407.69943	-795.05481	576.54694	-458.5181	-754.00665	126.31579	-447.87985	-861.13275	116.82812	-438.89554
371	1.845	-538.01715	98.254646	-563.47046	-589.29718	105.54506	-536.96283	-443.86304	518.49243	-389.12167	-551.10931	495.98697	-397.8266	-404.70193	979.11725	-489.00922	-736.46057	1007.2343	-614.23737	-697.98254	564.01685	-409.97479	-797.03217	578.37225	-463.80264	-753.62488	128.14496	-455.87653	-860.97607	117.45119	-452.43005
372	1.85	-538.39825	97.910515	-563.98096	-589.55304	105.15056	-537.56873	-446.41763	519.32422	-391.49438	-553.56573	496.63876	-401.58466	-407.05212	980.12738	-487.76797	-735.47815	1008.9493	-619.67932	-701.01971	566.12115	-412.53601	-798.85065	580.08746	-468.91479	-752.9165	129.97534	-464.26913	-860.28369	118.69367	-465.34161
373	1.855	-538.7287	97.531914	-564.46832	-589.92566	104.74502	-538.13477	-449.0358	520.1283	-393.80206	-556.07758	497.31387	-405.52991	-409.53445	981.07471	-486.89322	-734.79059	1010.4853	-624.88477	-703.87689	567.90955	-415.43326	-800.40576	581.83832	-473.74289	-752.59875	131.74548	-472.28531	-859.59961	120.19254	-477.84674
374	1.86	-539.04065	97.216286	-564.86896	-590.30298	104.40796	-538.75159	-451.68198	520.95831	-396.08759	-558.5116	497.89273	-409.64224	-411.56366	981.82324	-486.38159	-734.26135	1012.14	-629.6217	-706.79614	569.4845	-418.3378	-801.89819	583.50677	-478.41367	-752.16296	133.32986	-481.05161	-858.97522	121.96681	-490.10168
375	1.865	-539.26935	96.942741	-565.27374	-590.63208	104.07982	-539.35004	-454.31622	521.75397	-398.37619	-560.99866	498.64362	-413.56796	-413.79346	982.65674	-485.87436	-733.60541	1013.5836	-634.13	-709.69965	570.81573	-421.44507	-803.35754	585.19934	-483.01151	-751.80914	134.84474	-490.18802	-858.62457	123.81955	-502.38824
376	1.87	-539.5639	96.72612	-565.58539	-590.92505	103.85038	-539.94196	-457.01804	522.60352	-400.53458	-563.42676	499.40738	-417.52863	-415.97079	983.49884	-485.4368	-733.3172	1015.4103	-638.0918	-712.6095	571.84204	-424.55194	-804.91437	586.77655	-487.74426	-751.57489	136.26895	-499.71631	-858.02277	125.71851	-514.97388
377	1.875	-539.76514	96.623482	-565.89972	-591.23981	103.63705	-540.48584	-459.70401	523.38123	-402.70355	-565.8631	500.15546	-421.56006	-417.81229	984.17474	-485.30762	-732.85712	1016.9642	-641.93225	-715.61951	573.08942	-427.20529	-806.58594	588.27264	-492.55435	-751.29657	137.82152	-509.44006	-857.62329	127.7766	-527.90045
378	1.88	-539.99945	96.486229	-566.32507	-591.44214	103.45756	-540.9812	-461.98471	524.31561	-404.67374	-568.13306	500.93417	-425.52847	-419.46463	984.85382	-485.49078	-732.59204	1018.5024	-645.38	-718.50195	573.94855	-430.49182	-808.43347	589.64978	-497.58582	-750.91901	139.44374	-519.42542	-856.72266	129.51927	-540.28302
379	1.885	-540.12201	96.398109	-566.64697	-591.7464	103.31081	-541.53961	-464.71939	525.06372	-406.9126	-570.38153	501.65457	-429.62286	-420.94049	985.56854	-485.7529	-732.50323	1019.924	-648.60559	-721.42743	574.87329	-433.81476	-810.22681	590.901	-502.8302	-750.72577	140.9785	-529.43829	-856.0899	131.6649	-553.32605
380	1.89	-540.35614	96.287819	-566.95514	-591.84106	103.21399	-542.00934	-467.06723	525.80127	-408.99518	-572.2981	502.38895	-433.56601	-422.2753	986.25354	-486.24457	-732.43475	1020.8398	-651.55139	-724.3562	575.73627	-437.0881	-811.98981	592.04633	-508.09116	-750.33429	142.80397	-539.65057	-855.21729	133.62529	-565.99365
381	1.895	-540.38098	96.15564	-567.28717	-591.91492	103.13237	-542.49957	-469.1846	526.5293	-411.02411	-574.15082	503.17346	-437.24207	-423.5015	986.90039	-486.733	-732.35602	1022.1655	-654.2066	-727.25958	576.40338	-440.4277	-813.67816	593.17059	-513.34961	-749.74396	144.51256	-549.98053	-854.25562	135.66158	-578.6557
382	1.9	-540.49896	96.027985	-567.5495	-592.03363	103.00969	-542.90723	-470.82791	527.24994	-412.85492	-575.84229	503.7095	-441.10532	-424.59369	987.63989	-487.39273	-732.6214	1022.8376	-656.46912	-729.92896	576.88617	-444.22104	-815.37091	594.19977	-518.38293	-749.1842	146.19217	-560.48792	-853.39209	137.70184	-591.01141
383	1.905	-540.46265	95.973541	-567.87067	-592.01495	102.94458	-543.32416	-472.80133	527.7309	-415.03067	-577.20917	504.20905	-444.647	-425.5751	988.32794	-487.86987	-732.31097	1023.7363	-659.07434	-732.59174	577.26953	-448.13644	-817.05872	594.99896	-523.48865	-748.38043	147.97005	-571.1275	-852.24133	139.73326	-603.59943
384	1.91	-540.39496	95.870171	-568.22833	-592.05725	102.81815	-543.82214	-473.98743	528.29053	-416.82904	-578.55011	504.60751	-447.85757	-426.86191	989.04535	-488.19101	-732.31287	1024.2688	-661.40717	-735.17462	577.4491	-452.18118	-818.61603	595.80994	-528.14838	-747.59674	149.66293	-581.98401	-850.96454	141.832	-616.10522
385	1.915	-540.38593	95.674385	-568.54681	-592.01056	102.67586	-544.28381	-475.23404	528.72424	-418.84387	-579.4035	504.96454	-450.87033	-428.20032	989.80933	-488.42966	-732.24695	1024.6921	-663.68561	-737.69073	577.45087	-456.36868	-820.1687	596.5188	-532.58325	-746.81677	151.42778	-592.84521	-849.57452	143.86748	-628.56891
386	1.92	-540.2132	95.530167	-568.86127	-591.92181	102.50448	-544.76038	-476.26764	529.10419	-420.83496	-580.25775	505.12094	-453.63071	-428.92551	990.52332	-488.85556	-732.11932	1025.0045	-665.9386	-740.14337	577.29047	-460.74777	-821.79651	597.09802	-537.03571	-745.62555	153.04221	-603.86584	-848.11066	145.85823	-641.04645
387	1.925	-540.04144	95.342896	-569.21759	-591.73572	102.37676	-545.22327	-477.05127	529.43457	-422.78461	-580.92603	505.2724	-456.05756	-429.84982	991.26392	-489.23831	-731.87781	1025.0728	-668.16052	-742.46643	576.90753	-465.15506	-823.46692	597.46387	-541.56378	-744.52179	154.79807	-614.65863	-846.48132	148.00555	-653.43005
388	1.93	-539.88843	95.180099	-569.56995	-591.57141	102.3008	-545.54803	-477.72076	529.74347	-424.67368	-581.36664	505.41663	-458.16287	-430.96185	991.89795	-489.31586	-731.61096	1025.1575	-670.41498	-744.63483	576.35785	-469.62225	-825.11169	597.77521	-546.04523	-742.94629	156.44577	-625.97791	-844.81024	150.1017	-665.71216
389	1.935	-539.76929	94.980705	-569.81616	-591.46545	102.19214	-545.94788	-478.15118	530.01904	-426.47208	-581.37109	504.98282	-460.96255	-432.22763	992.56433	-489.41971	-731.2597	1025.1232	-672.72809	-746.81354	575.71222	-474.17456	-826.77527	597.8985	-550.62579	-741.32666	158.23917	-637.24146	-842.8775	152.23534	-677.81586
390	1.94	-539.68158	94.842705	-570.05139	-591.35809	102.10969	-546.25171	-478.5343	530.28711	-428.14368	-582.38745	505.64105	-461.21399	-433.71353	993.1601	-489.37265	-730.85754	1025.149	-674.8808	-748.97961	574.96991	-478.71326	-828.36188	597.98749	-555.34485	-739.4469	160.07954	-648.31451	-840.82526	154.37633	-689.79907
391	1.945	-539.58563	94.735161	-570.30872	-591.30212	102.05397	-546.52966	-478.82803	530.49066	-429.64438	-582.47424	505.89627	-462.4682	-435.28012	993.6701	-489.19531	-730.53009	1025.1781	-677.07538	-751.1701	573.89929	-483.92218	-829.95215	597.91364	-560.19806	-737.64038	161.96893	-659.21991	-838.5769	156.41154	-701.58002
392	1.95	-539.50043	94.606735	-570.49335	-591.21686	102.03362	-546.74438	-479.01956	530.71576	-431.01685	-582.64838	505.9892	-463.56955	-436.94955	994.11249	-488.97	-730.54956	1025.4058	-679.46326	-753.45367	573.20447	-488.30173	-831.56543	597.7796	-565.23828	-735.56677	163.78627	-670.11768	-836.18646	158.34113	-713.35004
393	1.955	-539.43536	94.54213	-570.60956	-591.1842	101.93695	-546.95752	-479.18591	530.87195	-432.18509	-582.7674	505.98907	-464.66022	-438.68542	994.52332	-488.69122	-730.45892	1025.7144	-681.65173	-755.63275	572.3952	-492.75653	-832.99036	597.55127	-570.39673	-733.27814	165.61819	-680.8028	-833.62848	160.20406	-724.92474
394	1.96	-539.38281	94.457352	-570.72321	-591.16772	101.88721	-547.12817	-479.3331	531.05908	-433.20636	-582.75159	505.71924	-466.04599	-440.36188	994.83466	-488.47723	-730.48059	1026.0919	-683.72986	-757.91425	571.44574	-497.84418	-834.51978	597.27124	-575.73523	-730.82404	167.36098	-691.23969	-831.15369	162.17117	-736.44702
395	1.965	-539.3421	94.42955	-570.80371	-591.09711	101.83434	-547.19995	-479.49768	531.20294	-434.08722	-582.79016	506.14978	-466.0271	-442.02264	995.1123	-488.24985	-730.4173	1026.056	-685.56342	-760.09979	570.46533	-502.87097	-835.99493	596.82721	-581.25787	-728.30591	168.98999	-701.54242	-828.23785	163.87343	-747.57526
